Coordinates
version=1
nRows=14
nColumns=40
inDegrees=yes

Units are S.I. units (second, meters, Newtons, ...)
If the header above contains a line with 'inDegrees', this indicates whether rotational values are in degrees (yes) or radians (no).

endheader
time	pelvis_tilt	pelvis_list	pelvis_rotation	pelvis_tx	pelvis_ty	pelvis_tz	hip_flexion_r	hip_adduction_r	hip_rotation_r	knee_angle_r	knee_angle_r_beta	ankle_angle_r	subtalar_angle_r	mtp_angle_r	hip_flexion_l	hip_adduction_l	hip_rotation_l	knee_angle_l	knee_angle_l_beta	ankle_angle_l	subtalar_angle_l	mtp_angle_l	lumbar_extension	lumbar_bending	lumbar_rotation	arm_flex_r	arm_add_r	arm_rot_r	elbow_flex_r	pro_sup_r	wrist_flex_r	wrist_dev_r	arm_flex_l	arm_add_l	arm_rot_l	elbow_flex_l	pro_sup_l	wrist_flex_l	wrist_dev_l
      7.37000000	     -2.96807941	      0.84202582	   -177.81689002	      0.28293047	      0.89331195	     -0.59954977	      7.05449586	    -11.30258574	    -17.80629043	      8.78486771	      0.15332487	     -2.33953553	      0.00000000	      0.00000000	      7.42786536	    -14.68309539	    -14.91929574	      9.24141618	      0.16129314	     -1.19974547	      0.00000000	      0.00000000	    -17.49053998	     -0.87647385	      2.29223436	     12.84610623	    -19.60460716	     38.76877948	     20.72416144	     84.00848023	      0.00000000	      0.00000000	     23.98416392	    -13.54768943	     66.79659796	     12.10583515	     73.07269079	      0.00000000	      0.00000000
      7.37500000	     -3.26614112	      0.83595632	   -177.78779571	      0.28232746	      0.89380300	     -0.59948789	      6.57836879	    -11.27593598	    -18.00867548	      8.61250298	      0.15031653	     -2.25607522	      0.00000000	      0.00000000	      7.06847797	    -14.68649513	    -15.00548604	      9.24577920	      0.16136929	     -1.13314993	      0.00000000	      0.00000000	    -17.49451619	     -0.87851546	      2.33139503	     12.61321199	    -19.53986521	     38.32190414	     20.68051178	     84.12438654	      0.00000000	      0.00000000	     23.80754382	    -13.61899395	     67.00944584	     12.37716659	     70.53173974	      0.00000000	      0.00000000
      7.38000000	     -3.56242340	      0.89130011	   -177.73472737	      0.28171911	      0.89427699	     -0.59935314	      6.07941654	    -11.18755033	    -18.17147859	      8.39745055	      0.14656316	     -2.38043571	      0.00000000	      0.00000000	      6.70986176	    -14.75364858	    -15.03506377	      9.22961651	      0.16108720	     -1.10582341	      0.00000000	      0.00000000	    -17.51440277	     -0.79131307	      2.30051851	     12.42475533	    -19.50858587	     38.06927931	     20.68891610	     83.94191895	      0.00000000	      0.00000000	     23.56977812	    -13.45955265	     66.24638385	     12.13947066	     71.06335515	      0.00000000	      0.00000000
      7.38500000	     -3.87626307	      1.02483259	   -177.74873640	      0.28103892	      0.89476168	     -0.59932812	      5.56537233	    -10.98516095	    -18.20851862	      8.14347233	      0.14213040	     -2.44341484	      0.00000000	      0.00000000	      6.30466533	    -14.91609728	    -15.17789665	      9.21202983	      0.16078025	     -1.08093996	      0.00000000	      0.00000000	    -17.53592242	     -0.64718819	      2.37262201	     12.21264077	    -19.41112970	     37.49929248	     20.58690986	     84.13757170	      0.00000000	      0.00000000	     23.37222156	    -13.39989263	     65.83127713	     12.13992103	     71.60378254	      0.00000000	      0.00000000
      7.39000000	     -4.06061859	      1.17137731	   -177.69650093	      0.28039088	      0.89502283	     -0.59924045	      5.24016915	    -10.80557798	    -18.37213479	      8.03513829	      0.14023962	     -2.37579274	      0.00000000	      0.00000000	      6.21870481	    -15.14600618	    -15.34663966	      9.52197930	      0.16618989	     -0.87123928	      0.00000000	      0.00000000	    -17.42456992	     -0.47961500	      2.43577205	     11.96381937	    -19.49326209	     37.44817657	     20.72522545	     83.53117201	      0.00000000	      0.00000000	     23.18808253	    -13.21190389	     65.37217360	     11.90897742	     71.71551014	      0.00000000	      0.00000000
      7.39500000	     -4.31090114	      1.14682935	   -177.70523838	      0.27979364	      0.89544518	     -0.59931223	      4.87183431	    -10.80562394	    -18.38173165	      7.93870363	      0.13855652	     -2.35609074	      0.00000000	      0.00000000	      5.76909513	    -15.06906454	    -15.26513700	      9.21561825	      0.16084288	     -1.01506115	      0.00000000	      0.00000000	    -17.40923999	     -0.50741223	      2.41016419	     11.85900150	    -19.50682641	     37.62805101	     20.71201203	     84.18079402	      0.00000000	      0.00000000	     22.88538747	    -13.08285855	     64.00806831	     11.76406359	     71.99263944	      0.00000000	      0.00000000
      7.40000000	     -4.56415822	      1.49875219	   -177.59036303	      0.27918037	      0.89580248	     -0.59926457	      4.57248200	    -10.46098893	    -19.00110247	      8.04333291	      0.14038264	     -2.43657002	      0.00000000	      0.00000000	      5.63070399	    -15.52702955	    -15.24896262	      9.48757397	      0.16558940	     -0.83326175	      0.00000000	      0.00000000	    -17.38281630	     -0.11788264	      2.45342084	     11.59556141	    -19.42946526	     36.92999199	     20.66954124	     83.98038544	      0.00000000	      0.00000000	     22.77178169	    -13.19365215	     64.39791103	     11.97978363	     72.65110257	      0.00000000	      0.00000000
      7.40500000	     -4.75991911	      1.41595183	   -177.61378311	      0.27856008	      0.89602907	     -0.59922121	      4.25752084	    -10.49224730	    -18.55753304	      7.92795841	      0.13836898	     -2.28582656	      0.00000000	      0.00000000	      5.33016435	    -15.42437881	    -15.31753808	      9.41918823	      0.16439585	     -0.82007992	      0.00000000	      0.00000000	    -17.31546474	     -0.21161762	      2.46794344	     11.41353293	    -19.52257965	     37.17590458	     20.83617629	     84.08427607	      0.00000000	      0.00000000	     22.53202213	    -13.25246517	     64.11653036	     12.17557231	     71.38901521	      0.00000000	      0.00000000
      7.41000000	     -4.93983011	      1.55050819	   -177.53321552	      0.27795306	      0.89621964	     -0.59920249	      4.04744935	    -10.35281907	    -18.76374632	      8.03922894	      0.14031101	     -2.12565103	      0.00000000	      0.00000000	      5.21363975	    -15.61041908	    -15.28648215	      9.59460608	      0.16745747	     -0.72178824	      0.00000000	      0.00000000	    -17.23058850	     -0.06409467	      2.46254432	     11.14868881	    -19.36517033	     36.32715591	     20.76743610	     83.75187804	      0.00000000	      0.00000000	     22.34718485	    -13.08759681	     63.48558668	     11.94824537	     71.81940588	      0.00000000	      0.00000000
      7.41500000	     -4.99591853	      1.63006288	   -177.44681030	      0.27742413	      0.89621198	     -0.59916257	      3.99095628	    -10.29795297	    -18.88574687	      8.18855722	      0.14291728	     -1.97290287	      0.00000000	      0.00000000	      5.20719331	    -15.68841522	    -15.02210961	      9.69242094	      0.16916466	     -0.56946638	      0.00000000	      0.00000000	    -17.03262990	      0.02282580	      2.39471158	     11.01992179	    -19.58284616	     37.07334082	     21.01669207	     84.07002665	      0.00000000	      0.00000000	     22.22487126	    -13.39281197	     63.90262533	     12.35275396	     73.14034760	      0.00000000	      0.00000000
      7.42000000	     -5.15446065	      1.77499696	   -177.51117382	      0.27677774	      0.89633323	     -0.59930196	      3.84201273	    -10.13704736	    -18.82474263	      8.29652815	      0.14480173	     -1.82610838	      0.00000000	      0.00000000	      5.12690645	    -15.93514712	    -15.24626162	     10.02146412	      0.17490754	     -0.40535075	      0.00000000	      0.00000000	    -16.94081681	      0.15140813	      2.51988416	     10.81725661	    -19.54356232	     36.73075890	     20.99633767	     84.12494648	      0.00000000	      0.00000000	     21.98845582	    -13.22174346	     63.47855795	     12.21887808	     71.10328055	      0.00000000	      0.00000000
      7.42500000	     -5.27848073	      1.86947132	   -177.49191831	      0.27614209	      0.89641721	     -0.59942927	      3.71919063	    -10.04733802	    -18.91625213	      8.42992146	      0.14712989	     -1.64016789	      0.00000000	      0.00000000	      5.04302272	    -16.07977035	    -15.19382516	     10.17159036	      0.17752774	     -0.24886092	      0.00000000	      0.00000000	    -16.82103597	      0.22481116	      2.51446022	     10.64248759	    -19.51416191	     36.64140880	     21.01647716	     84.28523020	      0.00000000	      0.00000000	     21.76042016	    -13.29038955	     63.48953174	     12.38227279	     69.50234981	      0.00000000	      0.00000000
      7.43000000	     -5.34750556	      2.00007908	   -177.47840943	      0.27565253	      0.89641669	     -0.59942724	      3.66074369	     -9.93027062	    -18.96569094	      8.55845574	      0.14937323	     -1.49173169	      0.00000000	      0.00000000	      5.14406598	    -16.30083494	    -15.21927213	     10.57861349	      0.18463164	     -0.05594494	      0.00000000	      0.00000000	    -16.66935035	      0.34995272	      2.54885989	     10.45990203	    -19.52237696	     36.51044922	     21.06291123	     84.12948830	      0.00000000	      0.00000000	     21.64871313	    -13.22687588	     63.34752531	     12.24612620	     70.52324578	      0.00000000	      0.00000000
      7.43500000	     -5.43400769	      2.05297117	   -177.49055331	      0.27509320	      0.89644365	     -0.59953622	      3.58058062	     -9.89934615	    -19.04192511	      8.69098704	      0.15168634	     -1.30299438	      0.00000000	      0.00000000	      5.13087287	    -16.40973891	    -15.21707251	     10.81336962	      0.18872890	      0.08752368	      0.00000000	      0.00000000	    -16.53494667	      0.37465330	      2.58249511	     10.30784292	    -19.60787028	     36.82786316	     21.20642691	     84.08606695	      0.00000000	      0.00000000	     21.60273091	    -13.37878093	     63.73133134	     12.31946081	     72.97226043	      0.00000000	      0.00000000
